<svg xmlns="http://www.w3.org/2000/svg" viewBox="0 0 1024 1024"><path d="M245.321 38.912c-.146.146-3.95.731-8.338 1.17-14.629 1.756-20.919 2.78-35.109 6.437-21.357 5.412-49.737 16.969-64.804 26.331-3.072 1.902-8.046 4.681-10.972 6.437-11.117 6.144-33.207 23.991-47.104 37.742-15.36 15.506-30.72 35.108-41.106 52.662-7.461 12.581-20.334 39.644-20.334 42.716 0 1.17-.585 2.633-1.316 3.364-1.756 2.048-10.094 32.33-11.264 40.96-.439 3.95-1.171 7.754-1.463 8.192-2.633 4.535-3.657 58.368-1.463 81.774 1.17 12.727 5.559 40.082 8.192 50.469.878 3.218 1.755 7.021 2.194 8.484 4.681 20.188 16.823 51.2 29.404 75.63 8.484 16.091 13.312 24.137 30.427 49.883 22.674 34.231 79.726 94.208 139.849 147.018 3.511 3.072 7.461 6.729 8.777 7.899 1.317 1.17 7.168 6.437 13.166 11.703s14.19 12.434 18.286 16.091c3.95 3.657 12.58 11.264 19.017 16.823 6.437 5.705 13.605 11.996 16.091 14.19 2.341 2.048 5.706 5.12 7.461 6.583 28.965 25.015 86.309 79.872 114.834 109.568 26.771 28.087 67.292 76.507 89.82 107.666 6.144 8.777 11.849 15.799 12.434 15.799s5.266-6.144 10.24-13.605c25.307-36.864 65.536-85.869 99.474-121.563 11.849-12.434 59.246-59.538 66.707-66.268 2.486-2.194 11.702-10.678 20.48-18.87 8.777-8.192 18.578-16.97 21.65-19.749 3.218-2.779 7.607-6.583 9.655-8.631 2.194-2.048 6.436-5.998 9.655-8.777 6.729-5.998 28.379-25.161 35.547-31.451a170 170 0 0 1 6.583-5.852c.878-.878 8.484-7.753 16.969-15.36 45.349-40.814 76.654-71.387 105.326-103.278 15.213-16.676 40.082-49.444 51.053-67.145 11.557-18.432 12.727-20.333 19.603-33.938 15.652-30.427 28.233-67.877 33.207-98.45 1.024-5.998 2.048-11.996 2.194-13.312 1.755-9.216 2.779-29.257 2.779-51.054s-.731-30.72-4.242-51.931c-2.048-12.435-12.434-45.495-17.701-56.32-1.316-2.78-3.803-8.046-5.558-11.703-4.243-9.216-17.847-31.744-23.406-38.766-2.487-3.218-4.974-6.583-5.559-7.314-.585-.878-4.681-5.705-9.216-10.972-41.253-47.396-98.011-78.848-160.183-88.795-16.53-2.633-54.272-3.657-66.56-1.756-4.827.732-11.118 1.756-13.897 2.048-21.943 3.365-54.565 16.384-79.726 32.037s-46.519 34.085-72.411 62.318c-13.458 14.775-32.329 42.569-45.934 67.584l-6.875 12.727-6.291-11.996c-9.947-19.31-25.746-43.008-41.984-63.488-8.484-10.386-42.861-43.154-55.442-52.516-45.641-34.085-91.575-50.323-142.336-49.884-11.118.146-20.334.293-20.48.439" /></svg>
