<?xml version="1.0" encoding="UTF-8" standalone="no"?><!DOCTYPE svg PUBLIC "-//W3C//DTD SVG 1.1//EN" "http://www.w3.org/Graphics/SVG/1.1/DTD/svg11.dtd"><svg width="100%" height="100%" viewBox="0 0 1200 1200" version="1.1" xmlns="http://www.w3.org/2000/svg" xmlns:xlink="http://www.w3.org/1999/xlink" xml:space="preserve" xmlns:serif="http://www.serif.com/" style="fill-rule:evenodd;clip-rule:evenodd;stroke-linejoin:round;stroke-miterlimit:1.41421;"><path d="M344.9,150.4c-0.2,0.2 -4.2,0.7 -8.9,1.1c-40,3.2 -85.7,19.6 -120.5,43.3c-45.1,30.6 -79.6,73.9 -98.3,123.3c-5.1,13.5 -10.4,31.2 -11.8,39.9c-0.2,1.4 -0.6,3.4 -0.9,4.6c-2.9,13.1 -4.2,31 -3.9,54.9c0.2,13.2 0.5,25.1 0.8,26.5c0.2,1.4 0.7,5.6 1.1,9.5c1.7,18.8 8.5,51.5 14.4,68.7c1.6,4.9 2.8,8.8 2.6,8.8c-0.2,0 0.8,2.6 2.1,5.7c1.4,3.2 3.3,7.8 4.1,10.3c3.1,9 13.7,30.8 22.8,46.6c4.9,8.5 17.2,27.7 19.7,30.9c0.4,0.5 4.5,5.9 9,12c7,9.4 14,18.2 24.8,30.9c18.3,21.5 61.6,64.6 87.4,86.9c1.2,1 3.7,3.3 5.6,5c1.9,1.8 9.4,8.4 16.5,14.7c7.2,6.3 13.5,11.9 14.1,12.5c0.6,0.5 3.7,3.2 6.9,6c5,4.2 12.8,11.1 36,31.4c1.7,1.4 6.4,5.6 10.5,9.2c4.1,3.6 8.8,7.7 10.3,9c1.6,1.3 4.1,3.5 5.6,4.9c6.8,6.4 28,25.5 32.5,29.3c11.5,10 65,62.5 80.6,79.2c28.5,30.6 59.2,67.5 82.1,99.2c11,15.1 9.1,14.9 18,1.8c3,-4.4 5.8,-8.5 6.2,-9c0.4,-0.6 2.6,-3.5 4.8,-6.5c6.6,-9.1 7.1,-9.8 14.3,-19.3c3.8,-5.1 7.2,-9.4 7.6,-9.7c0.3,-0.3 2.8,-3.4 5.5,-7c5.6,-7.4 7.5,-9.7 12.6,-15.4c1.9,-2.3 6.1,-7.3 9.3,-11.1c3.3,-3.9 9.1,-10.6 13.1,-15c4,-4.4 9.2,-10.2 11.6,-12.9c4.5,-4.9 14.4,-15.4 26.9,-28.1c16.7,-17.1 47.4,-46.6 64.5,-62.1c1.7,-1.5 5.7,-5.2 9.1,-8.3c6.6,-6.1 16.3,-14.9 32.4,-29.1c5.8,-5.1 13.9,-12.3 18,-16c4.1,-3.7 9.1,-8 11,-9.6c1.9,-1.6 3.7,-3.1 4,-3.5c0.3,-0.3 5,-4.5 10.5,-9.4c19.7,-17.3 23.9,-21 26.4,-23.5c1.5,-1.4 4.9,-4.5 7.6,-6.9c2.8,-2.5 9.2,-8.3 14.4,-13c39.3,-35.8 72.9,-70.7 94.6,-98.1c3.3,-4.1 6.3,-7.7 6.6,-8c3,-2.6 27.2,-38.2 31.9,-47c1.3,-2.5 3,-5.2 3.6,-6c1.7,-2.1 15.1,-29.2 18.6,-37.5c12.5,-29.8 22,-66.4 24.3,-94c0.4,-4.4 0.9,-8.4 1.2,-8.8c1.2,-2 1,-48.9 -0.3,-59.7c-4.7,-40.7 -18.8,-80 -40.8,-113.3c-19,-28.8 -45.5,-55.5 -73.8,-74.4c-13.7,-9.1 -21.5,-13.3 -45.3,-24.4c-7,-3.2 -32.5,-11.4 -39.4,-12.5c-1.4,-0.3 -3.9,-0.9 -5.6,-1.4c-1.6,-0.5 -4.8,-1.2 -7,-1.5c-2.2,-0.4 -6.7,-1.1 -10,-1.6c-18.1,-2.9 -63.7,-3.2 -68.4,-0.5c-0.3,0.2 -2.8,0.6 -5.6,1c-5.4,0.7 -8.1,1.3 -19.5,4.4c-20.4,5.7 -45.5,16.7 -59.8,26.3c-2.4,1.6 -4.5,2.9 -4.8,2.9c-1.1,0 -23.2,16.1 -30.5,22.2c-7.4,6.2 -30.7,29.1 -36.4,35.8c-18.5,21.8 -34.4,45 -45.3,66.3c-2.6,5.1 -5.1,9.8 -5.5,10.5c-0.6,0.8 -2.5,-1.9 -5.7,-8.1c-22.7,-44.2 -59.2,-87.7 -97,-115.4c-7.9,-5.7 -19,-13.3 -19.7,-13.3c-0.3,0 -1.7,-0.8 -3.1,-1.9c-12.5,-8.7 -44.7,-22.3 -63.2,-26.7c-9.9,-2.3 -9.8,-2.3 -20,-4c-8.1,-1.3 -46.1,-2.9 -47.1,-2Z" style="fill-rule:nonzero;"/></svg>