<?xml version="1.0" encoding="UTF-8" standalone="no"?><!DOCTYPE svg PUBLIC "-//W3C//DTD SVG 1.1//EN" "http://www.w3.org/Graphics/SVG/1.1/DTD/svg11.dtd"><svg width="100%" height="100%" viewBox="0 0 32 30" version="1.1" xmlns="http://www.w3.org/2000/svg" xmlns:xlink="http://www.w3.org/1999/xlink" xml:space="preserve" xmlns:serif="http://www.serif.com/" style="fill-rule:evenodd;clip-rule:evenodd;stroke-linejoin:round;stroke-miterlimit:1.41421;"><path d="M7.827,0.008c-0.007,0.007 -0.135,0.023 -0.285,0.036c-1.282,0.102 -2.745,0.627 -3.86,1.387c-1.445,0.98 -2.55,2.367 -3.149,3.949c-0.163,0.433 -0.333,1 -0.378,1.278c-0.006,0.045 -0.019,0.109 -0.029,0.148c-0.093,0.419 -0.134,0.993 -0.125,1.758c0.007,0.423 0.016,0.804 0.026,0.849c0.006,0.045 0.022,0.179 0.035,0.304c0.055,0.603 0.272,1.65 0.461,2.201c0.052,0.157 0.09,0.282 0.084,0.282c-0.007,0 0.025,0.083 0.067,0.182c0.045,0.103 0.106,0.25 0.131,0.33c0.1,0.289 0.439,0.987 0.731,1.493c0.157,0.272 0.551,0.887 0.631,0.99c0.013,0.016 0.144,0.189 0.288,0.384c0.224,0.301 0.448,0.583 0.794,0.99c0.587,0.689 1.974,2.069 2.8,2.784c0.038,0.032 0.119,0.105 0.179,0.16c0.061,0.057 0.301,0.269 0.529,0.471c0.231,0.201 0.432,0.381 0.452,0.4c0.019,0.016 0.118,0.102 0.221,0.192c0.16,0.135 0.41,0.356 1.153,1.006c0.054,0.045 0.205,0.179 0.336,0.295c0.131,0.115 0.282,0.246 0.33,0.288c0.051,0.042 0.131,0.112 0.179,0.157c0.218,0.205 0.897,0.817 1.041,0.938c0.369,0.321 2.082,2.002 2.582,2.537c0.913,0.981 1.896,2.163 2.63,3.178c0.352,0.484 0.292,0.477 0.577,0.058c0.096,-0.141 0.185,-0.273 0.198,-0.289c0.013,-0.019 0.083,-0.112 0.154,-0.208c0.211,-0.291 0.227,-0.314 0.458,-0.618c0.122,-0.163 0.231,-0.301 0.243,-0.311c0.01,-0.009 0.09,-0.109 0.177,-0.224c0.179,-0.237 0.24,-0.311 0.403,-0.493c0.061,-0.074 0.196,-0.234 0.298,-0.356c0.106,-0.125 0.292,-0.339 0.42,-0.48c0.128,-0.141 0.294,-0.327 0.371,-0.414c0.144,-0.157 0.462,-0.493 0.862,-0.9c0.535,-0.547 1.518,-1.492 2.066,-1.989c0.055,-0.048 0.183,-0.166 0.292,-0.266c0.211,-0.195 0.522,-0.477 1.037,-0.932c0.186,-0.163 0.446,-0.394 0.577,-0.512c0.131,-0.119 0.291,-0.257 0.352,-0.308c0.061,-0.051 0.119,-0.099 0.128,-0.112c0.01,-0.01 0.161,-0.144 0.337,-0.301c0.631,-0.554 0.765,-0.673 0.845,-0.753c0.048,-0.045 0.157,-0.144 0.244,-0.221c0.09,-0.08 0.295,-0.266 0.461,-0.416c1.259,-1.147 2.335,-2.265 3.03,-3.143c0.106,-0.131 0.202,-0.246 0.212,-0.256c0.096,-0.083 0.871,-1.224 1.022,-1.505c0.041,-0.08 0.096,-0.167 0.115,-0.193c0.054,-0.067 0.484,-0.935 0.596,-1.201c0.4,-0.954 0.704,-2.127 0.778,-3.011c0.013,-0.141 0.029,-0.269 0.039,-0.282c0.038,-0.064 0.032,-1.566 -0.01,-1.912c-0.151,-1.304 -0.602,-2.563 -1.307,-3.629c-0.609,-0.923 -1.457,-1.778 -2.364,-2.383c-0.439,-0.292 -0.689,-0.426 -1.451,-0.782c-0.224,-0.102 -1.041,-0.365 -1.262,-0.4c-0.045,-0.01 -0.125,-0.029 -0.179,-0.045c-0.052,-0.016 -0.154,-0.039 -0.225,-0.048c-0.07,-0.013 -0.214,-0.036 -0.32,-0.052c-0.58,-0.092 -2.04,-0.102 -2.191,-0.016c-0.01,0.007 -0.09,0.02 -0.179,0.032c-0.173,0.023 -0.26,0.042 -0.625,0.141c-0.653,0.183 -1.457,0.535 -1.916,0.843c-0.076,0.051 -0.144,0.093 -0.153,0.093c-0.036,0 -0.743,0.515 -0.977,0.711c-0.237,0.198 -0.984,0.932 -1.166,1.147c-0.593,0.698 -1.102,1.441 -1.451,2.123c-0.084,0.164 -0.164,0.314 -0.176,0.337c-0.02,0.025 -0.081,-0.061 -0.183,-0.26c-0.727,-1.416 -1.896,-2.809 -3.107,-3.696c-0.253,-0.183 -0.609,-0.426 -0.631,-0.426c-0.01,0 -0.055,-0.026 -0.099,-0.061c-0.401,-0.279 -1.432,-0.714 -2.025,-0.855c-0.317,-0.074 -0.314,-0.074 -0.641,-0.129c-0.259,-0.041 -1.476,-0.092 -1.508,-0.064Z" style="fill-rule:nonzero;"/></svg>