<?xml version="1.0" standalone="no"?>
<!DOCTYPE svg PUBLIC "-//W3C//DTD SVG 20010904//EN"
 "http://www.w3.org/TR/2001/REC-SVG-20010904/DTD/svg10.dtd">
<svg version="1.0" xmlns="http://www.w3.org/2000/svg"
 width="1200.000000pt" height="1200.000000pt" viewBox="0 0 1200.000000 1200.000000"
 preserveAspectRatio="xMidYMid meet">
<metadata>
Created by potrace 1.11, written by Peter Selinger 2001-2013
</metadata>
<g transform="translate(0.000000,1200.000000) scale(0.100000,-0.100000)"
fill="#000000" stroke="none">
<path d="M3449 10496 c-2 -2 -42 -7 -89 -11 -400 -32 -857 -196 -1205 -433
-451 -306 -796 -739 -983 -1233 -51 -135 -104 -312 -118 -399 -2 -14 -6 -34
-9 -46 -29 -131 -42 -310 -39 -549 2 -132 5 -251 8 -265 2 -14 7 -56 11 -95
17 -188 85 -515 144 -687 16 -49 28 -88 26 -88 -2 0 8 -26 21 -57 14 -32 33
-78 41 -103 31 -90 137 -308 228 -466 49 -85 172 -277 197 -309 4 -5 45 -59
90 -120 70 -94 140 -182 248 -309 183 -215 616 -646 874 -869 12 -10 37 -33
56 -50 19 -18 94 -84 165 -147 72 -63 135 -119 141 -125 6 -5 37 -32 69 -60
50 -42 128 -111 360 -314 17 -14 64 -56 105 -92 41 -36 88 -77 103 -90 16 -13
41 -35 56 -49 68 -64 280 -255 325 -293 115 -100 650 -625 806 -792 285 -306
592 -675 821 -992 110 -151 91 -149 180 -18 30 44 58 85 62 90 4 6 26 35 48
65 66 91 71 98 143 193 38 51 72 94 76 97 3 3 28 34 55 70 56 74 75 97 126
154 19 23 61 73 93 111 33 39 91 106 131 150 40 44 92 102 116 129 45 49 144
154 269 281 167 171 474 466 645 621 17 15 57 52 91 83 66 61 163 149 324 291
58 51 139 123 180 160 41 37 91 80 110 96 19 16 37 31 40 35 3 3 50 45 105 94
197 173 239 210 264 235 15 14 49 45 76 69 28 25 92 83 144 130 393 358 729
707 946 981 33 41 63 77 66 80 30 26 272 382 319 470 13 25 30 52 36 60 17 21
151 292 186 375 125 298 220 664 243 940 4 44 9 84 12 88 12 20 10 489 -3 597
-47 407 -188 800 -408 1133 -190 288 -455 555 -738 744 -137 91 -215 133 -453
244 -70 32 -325 114 -394 125 -14 3 -39 9 -56 14 -16 5 -48 12 -70 15 -22 4
-67 11 -100 16 -181 29 -637 32 -684 5 -3 -2 -28 -6 -56 -10 -54 -7 -81 -13
-195 -44 -204 -57 -455 -167 -598 -263 -24 -16 -45 -29 -48 -29 -11 0 -232
-161 -305 -222 -74 -62 -307 -291 -364 -358 -185 -218 -344 -450 -453 -663
-26 -51 -51 -98 -55 -105 -6 -8 -25 19 -57 81 -227 442 -592 877 -970 1154
-79 57 -190 133 -197 133 -3 0 -17 8 -31 19 -125 87 -447 223 -632 267 -99 23
-98 23 -200 40 -81 13 -461 29 -471 20z"/>
</g>
</svg>
