<?xml version="1.0" encoding="UTF-8" standalone="no"?><!DOCTYPE svg PUBLIC "-//W3C//DTD SVG 1.1//EN" "http://www.w3.org/Graphics/SVG/1.1/DTD/svg11.dtd"><svg xmlns="http://www.w3.org/2000/svg" xmlns:xlink="http://www.w3.org/1999/xlink"><symbol viewBox="0 0 32 32" fill-rule="evenodd" clip-rule="evenodd" stroke-linejoin="round" stroke-miterlimit="1.414" aria-labelledby="aicon--default-desc aicon--default-title" id="icon--default" xmlns="http://www.w3.org/2000/svg"><title id="aicon--default-title">Icon</title><desc id="aicon--default-desc">Default icon, a circle</desc><path d="M16 0C7.163 0 0 7.163 0 16s7.163 16 16 16 16-7.163 16-16S24.837 0 16 0zm0 28C9.373 28 4 22.627 4 16S9.373 4 16 4s12 5.373 12 12-5.373 12-12 12z" fill-rule="nonzero"/></symbol><symbol viewBox="0 0 32 30" fill-rule="evenodd" clip-rule="evenodd" stroke-linejoin="round" stroke-miterlimit="1.414" aria-labelledby="bicon--logo-desc bicon--logo-title" id="icon--logo" xmlns="http://www.w3.org/2000/svg"><title id="bicon--logo-title">Logo</title><desc id="bicon--logo-desc">The logo of the page, a shape of a heart</desc><path d="M7.827.008a1.983 1.983 0 01-.285.036C6.26.146 4.797.671 3.682 1.431c-1.445.98-2.55 2.367-3.149 3.949-.163.433-.333 1-.378 1.278a1.493 1.493 0 01-.029.148c-.093.419-.134.993-.125 1.758.007.423.016.804.026.849.006.045.022.179.035.304.055.603.272 1.65.461 2.201.052.157.09.282.084.282a.875.875 0 00.067.182c.045.103.106.25.131.33.1.289.439.987.731 1.493.157.272.551.887.631.99.013.016.144.189.288.384.224.301.448.583.794.99.587.689 1.974 2.069 2.8 2.784.038.032.119.105.179.16.061.057.301.269.529.471.231.201.432.381.452.4l.221.192c.16.135.41.356 1.153 1.006.054.045.205.179.336.295l.33.288c.051.042.131.112.179.157.218.205.897.817 1.041.938.369.321 2.082 2.002 2.582 2.537a35.566 35.566 0 012.63 3.178c.352.484.292.477.577.058.096-.141.185-.273.198-.289l.154-.208c.211-.291.227-.314.458-.618a6.02 6.02 0 01.243-.311c.01-.009.09-.109.177-.224.179-.237.24-.311.403-.493l.298-.356c.106-.125.292-.339.42-.48.128-.141.294-.327.371-.414.144-.157.462-.493.862-.9a60.879 60.879 0 012.066-1.989c.055-.048.183-.166.292-.266.211-.195.522-.477 1.037-.932.186-.163.446-.394.577-.512.131-.119.291-.257.352-.308.061-.051.119-.099.128-.112l.337-.301c.631-.554.765-.673.845-.753.048-.045.157-.144.244-.221l.461-.416c1.259-1.147 2.335-2.265 3.03-3.143.106-.131.202-.246.212-.256.096-.083.871-1.224 1.022-1.505.041-.08.096-.167.115-.193.054-.067.484-.935.596-1.201.4-.954.704-2.127.778-3.011a1.65 1.65 0 01.039-.282c.038-.064.032-1.566-.01-1.912a8.352 8.352 0 00-1.307-3.629 8.705 8.705 0 00-2.364-2.383c-.439-.292-.689-.426-1.451-.782-.224-.102-1.041-.365-1.262-.4A3.128 3.128 0 0125.4.188a1.629 1.629 0 00-.225-.048c-.07-.013-.214-.036-.32-.052-.58-.092-2.04-.102-2.191-.016a1.1 1.1 0 01-.179.032c-.173.023-.26.042-.625.141-.653.183-1.457.535-1.916.843a1.07 1.07 0 01-.153.093c-.036 0-.743.515-.977.711-.237.198-.984.932-1.166 1.147-.593.698-1.102 1.441-1.451 2.123-.084.164-.164.314-.176.337-.02.025-.081-.061-.183-.26-.727-1.416-1.896-2.809-3.107-3.696-.253-.183-.609-.426-.631-.426a.344.344 0 01-.099-.061C11.6.777 10.569.342 9.976.201 9.659.127 9.662.127 9.335.072 9.076.031 7.859-.02 7.827.008z" fill-rule="nonzero"/></symbol></svg>