<?xml version="1.0" encoding="UTF-8" standalone="no"?><!DOCTYPE svg PUBLIC "-//W3C//DTD SVG 1.1//EN" "http://www.w3.org/Graphics/SVG/1.1/DTD/svg11.dtd"><svg xmlns="http://www.w3.org/2000/svg" xmlns:xlink="http://www.w3.org/1999/xlink"><symbol viewBox="0 0 1200 1200" fill-rule="evenodd" clip-rule="evenodd" stroke-linejoin="round" stroke-miterlimit="1.414" aria-labelledby="aicon--logo-desc aicon--logo-title" id="icon--logo" xmlns="http://www.w3.org/2000/svg"><title id="aicon--logo-title">Logo</title><desc id="aicon--logo-desc">The logo of the page, a shape of a heart</desc><path d="M344.9 150.4c-.2.2-4.2.7-8.9 1.1-40 3.2-85.7 19.6-120.5 43.3-45.1 30.6-79.6 73.9-98.3 123.3-5.1 13.5-10.4 31.2-11.8 39.9-.2 1.4-.6 3.4-.9 4.6-2.9 13.1-4.2 31-3.9 54.9.2 13.2.5 25.1.8 26.5.2 1.4.7 5.6 1.1 9.5 1.7 18.8 8.5 51.5 14.4 68.7 1.6 4.9 2.8 8.8 2.6 8.8-.2 0 .8 2.6 2.1 5.7 1.4 3.2 3.3 7.8 4.1 10.3 3.1 9 13.7 30.8 22.8 46.6 4.9 8.5 17.2 27.7 19.7 30.9.4.5 4.5 5.9 9 12 7 9.4 14 18.2 24.8 30.9 18.3 21.5 61.6 64.6 87.4 86.9 1.2 1 3.7 3.3 5.6 5 1.9 1.8 9.4 8.4 16.5 14.7 7.2 6.3 13.5 11.9 14.1 12.5.6.5 3.7 3.2 6.9 6 5 4.2 12.8 11.1 36 31.4 1.7 1.4 6.4 5.6 10.5 9.2 4.1 3.6 8.8 7.7 10.3 9 1.6 1.3 4.1 3.5 5.6 4.9 6.8 6.4 28 25.5 32.5 29.3 11.5 10 65 62.5 80.6 79.2 28.5 30.6 59.2 67.5 82.1 99.2 11 15.1 9.1 14.9 18 1.8 3-4.4 5.8-8.5 6.2-9 .4-.6 2.6-3.5 4.8-6.5 6.6-9.1 7.1-9.8 14.3-19.3 3.8-5.1 7.2-9.4 7.6-9.7.3-.3 2.8-3.4 5.5-7 5.6-7.4 7.5-9.7 12.6-15.4 1.9-2.3 6.1-7.3 9.3-11.1 3.3-3.9 9.1-10.6 13.1-15s9.2-10.2 11.6-12.9c4.5-4.9 14.4-15.4 26.9-28.1 16.7-17.1 47.4-46.6 64.5-62.1 1.7-1.5 5.7-5.2 9.1-8.3 6.6-6.1 16.3-14.9 32.4-29.1 5.8-5.1 13.9-12.3 18-16 4.1-3.7 9.1-8 11-9.6 1.9-1.6 3.7-3.1 4-3.5.3-.3 5-4.5 10.5-9.4 19.7-17.3 23.9-21 26.4-23.5 1.5-1.4 4.9-4.5 7.6-6.9 2.8-2.5 9.2-8.3 14.4-13 39.3-35.8 72.9-70.7 94.6-98.1 3.3-4.1 6.3-7.7 6.6-8 3-2.6 27.2-38.2 31.9-47 1.3-2.5 3-5.2 3.6-6 1.7-2.1 15.1-29.2 18.6-37.5 12.5-29.8 22-66.4 24.3-94 .4-4.4.9-8.4 1.2-8.8 1.2-2 1-48.9-.3-59.7-4.7-40.7-18.8-80-40.8-113.3-19-28.8-45.5-55.5-73.8-74.4-13.7-9.1-21.5-13.3-45.3-24.4-7-3.2-32.5-11.4-39.4-12.5-1.4-.3-3.9-.9-5.6-1.4-1.6-.5-4.8-1.2-7-1.5-2.2-.4-6.7-1.1-10-1.6-18.1-2.9-63.7-3.2-68.4-.5-.3.2-2.8.6-5.6 1-5.4.7-8.1 1.3-19.5 4.4-20.4 5.7-45.5 16.7-59.8 26.3-2.4 1.6-4.5 2.9-4.8 2.9-1.1 0-23.2 16.1-30.5 22.2-7.4 6.2-30.7 29.1-36.4 35.8-18.5 21.8-34.4 45-45.3 66.3-2.6 5.1-5.1 9.8-5.5 10.5-.6.8-2.5-1.9-5.7-8.1-22.7-44.2-59.2-87.7-97-115.4-7.9-5.7-19-13.3-19.7-13.3-.3 0-1.7-.8-3.1-1.9-12.5-8.7-44.7-22.3-63.2-26.7-9.9-2.3-9.8-2.3-20-4-8.1-1.3-46.1-2.9-47.1-2z" fill-rule="nonzero"/></symbol></svg>