<?xml version="1.0" encoding="UTF-8" standalone="no"?>
<!DOCTYPE svg PUBLIC "-//W3C//DTD SVG 1.1//EN" "http://www.w3.org/Graphics/SVG/1.1/DTD/svg11.dtd">
<svg width="100%" height="100%" viewBox="0 0 999 917" version="1.1" xmlns="http://www.w3.org/2000/svg" xmlns:xlink="http://www.w3.org/1999/xlink" xml:space="preserve" xmlns:serif="http://www.serif.com/" style="fill-rule:evenodd;clip-rule:evenodd;stroke-linejoin:round;stroke-miterlimit:1.41421;">
    <g transform="matrix(1,0,0,1,-100.558,-150.138)">
        <path d="M344.9,150.4C344.7,150.6 340.7,151.1 336,151.5C296,154.7 250.3,171.1 215.5,194.8C170.4,225.4 135.9,268.7 117.2,318.1C112.1,331.6 106.8,349.3 105.4,358C105.2,359.4 104.8,361.4 104.5,362.6C101.6,375.7 100.3,393.6 100.6,417.5C100.8,430.7 101.1,442.6 101.4,444C101.6,445.4 102.1,449.6 102.5,453.5C104.2,472.3 111,505 116.9,522.2C118.5,527.1 119.7,531 119.5,531C119.3,531 120.3,533.6 121.6,536.7C123,539.9 124.9,544.5 125.7,547C128.8,556 139.4,577.8 148.5,593.6C153.4,602.1 165.7,621.3 168.2,624.5C168.6,625 172.7,630.4 177.2,636.5C184.2,645.9 191.2,654.7 202,667.4C220.3,688.9 263.6,732 289.4,754.3C290.6,755.3 293.1,757.6 295,759.3C296.9,761.1 304.4,767.7 311.5,774C318.7,780.3 325,785.9 325.6,786.5C326.2,787 329.3,789.7 332.5,792.5C337.5,796.7 345.3,803.6 368.5,823.9C370.2,825.3 374.9,829.5 379,833.1C383.1,836.7 387.8,840.8 389.3,842.1C390.9,843.4 393.4,845.6 394.9,847C401.7,853.4 422.9,872.5 427.4,876.3C438.9,886.3 492.4,938.8 508,955.5C536.5,986.1 567.2,1023 590.1,1054.7C601.1,1069.8 599.2,1069.6 608.1,1056.5C611.1,1052.1 613.9,1048 614.3,1047.5C614.7,1046.9 616.9,1044 619.1,1041C625.7,1031.9 626.2,1031.2 633.4,1021.7C637.2,1016.6 640.6,1012.3 641,1012C641.3,1011.7 643.8,1008.6 646.5,1005C652.1,997.6 654,995.3 659.1,989.6C661,987.3 665.2,982.3 668.4,978.5C671.7,974.6 677.5,967.9 681.5,963.5C685.5,959.1 690.7,953.3 693.1,950.6C697.6,945.7 707.5,935.2 720,922.5C736.7,905.4 767.4,875.9 784.5,860.4C786.2,858.9 790.2,855.2 793.6,852.1C800.2,846 809.9,837.2 826,823C831.8,817.9 839.9,810.7 844,807C848.1,803.3 853.1,799 855,797.4C856.9,795.8 858.7,794.3 859,793.9C859.3,793.6 864,789.4 869.5,784.5C889.2,767.2 893.4,763.5 895.9,761C897.4,759.6 900.8,756.5 903.5,754.1C906.3,751.6 912.7,745.8 917.9,741.1C957.2,705.3 990.8,670.4 1012.5,643C1015.8,638.9 1018.8,635.3 1019.1,635C1022.1,632.4 1046.3,596.8 1051,588C1052.3,585.5 1054,582.8 1054.6,582C1056.3,579.9 1069.7,552.8 1073.2,544.5C1085.7,514.7 1095.2,478.1 1097.5,450.5C1097.9,446.1 1098.4,442.1 1098.7,441.7C1099.9,439.7 1099.7,392.8 1098.4,382C1093.7,341.3 1079.6,302 1057.6,268.7C1038.6,239.9 1012.1,213.2 983.8,194.3C970.1,185.2 962.3,181 938.5,169.9C931.5,166.7 906,158.5 899.1,157.4C897.7,157.1 895.2,156.5 893.5,156C891.9,155.5 888.7,154.8 886.5,154.5C884.3,154.1 879.8,153.4 876.5,152.9C858.4,150 812.8,149.7 808.1,152.4C807.8,152.6 805.3,153 802.5,153.4C797.1,154.1 794.4,154.7 783,157.8C762.6,163.5 737.5,174.5 723.2,184.1C720.8,185.7 718.7,187 718.4,187C717.3,187 695.2,203.1 687.9,209.2C680.5,215.4 657.2,238.3 651.5,245C633,266.8 617.1,290 606.2,311.3C603.6,316.4 601.1,321.1 600.7,321.8C600.1,322.6 598.2,319.9 595,313.7C572.3,269.5 535.8,226 498,198.3C490.1,192.6 479,185 478.3,185C478,185 476.6,184.2 475.2,183.1C462.7,174.4 430.5,160.8 412,156.4C402.1,154.1 402.2,154.1 392,152.4C383.9,151.1 345.9,149.5 344.9,150.4Z" style="fill-rule:nonzero;"/>
    </g>
</svg>
